<svg width="216" height="56" viewBox="0 0 216 56" fill="none" xmlns="http://www.w3.org/2000/svg">
<path d="M98.1482 53.2612H62.719V55.4966H98.1482V53.2612Z" fill="#96B85C"/>
<path d="M137.276 53.2612H101.847V55.4966H137.276V53.2612Z" fill="#00B2DE"/>
<path d="M176.404 53.2612H140.975V55.4966H176.404V53.2612Z" fill="#7F7F7F"/>
<path d="M215.532 53.2612H180.103V55.4966H215.532V53.2612Z" fill="#FF5349"/>
<path d="M212.239 26.6498V38.761L211.897 38.2064V38.2406L211.812 38.0614C211.636 37.7043 211.433 37.3607 211.206 37.0333L211.061 36.8285L210.946 36.628L210.801 36.3977C210.528 35.7486 210.169 35.1388 209.735 34.5846L209.564 34.3542C209.506 34.2848 209.452 34.2122 209.402 34.1367L209.359 34.0769C209.304 33.9959 209.253 33.9063 209.206 33.821L204.799 26.6498H201.621V46.4441H205.102V33.9874L212.593 46.4527H215.656V26.6498H212.239Z" fill="black"/>
<path d="M71.5112 0.524708L71.4771 0.426591L71.3662 0.136505H67.9875L67.8254 0.665487L67.7614 0.874524L61.9425 19.8242H65.5047L66.7461 15.9506H72.8379L74.3694 19.8242H77.8462L71.5112 0.524708ZM67.7656 12.4184L69.7238 6.35635L71.8568 12.4184H67.7656Z" fill="black"/>
<path d="M88.7246 0.110901V6.77015C88.7223 7.53769 88.4164 8.27315 87.8737 8.81589C87.331 9.35862 86.5955 9.66453 85.828 9.66678H85.1369C84.3693 9.66453 83.6339 9.35862 83.0911 8.81589C82.5484 8.27315 82.2425 7.53769 82.2402 6.77015V0.110901H78.7933V7.33327C78.7983 8.64895 79.2413 9.92551 80.0524 10.9614C80.8635 11.9973 81.9965 12.7336 83.2726 13.054H83.4603V19.8242H87.0182V13.182L87.6837 13.0711C88.9772 12.7654 90.1301 12.0331 90.9566 10.9922C91.7832 9.95128 92.2352 8.66241 92.2398 7.33327V0.110901H88.7246Z" fill="black"/>
<path d="M108.254 0.162109H95.1834V3.61331H102.717L94.697 19.8242H107.806V16.3132H99.9144L108.254 0.162109Z" fill="black"/>
<path d="M117.652 0H117.111C115.445 0.00562855 113.849 0.670068 112.672 1.84822C111.495 3.02637 110.831 4.62252 110.827 6.28811V13.5403C110.832 15.2052 111.496 16.8002 112.674 17.9775C113.851 19.1547 115.446 19.8186 117.111 19.8242H117.652C119.317 19.8186 120.912 19.1547 122.09 17.9775C123.267 16.8002 123.931 15.2052 123.936 13.5403V6.28811C123.932 4.62252 123.268 3.02637 122.091 1.84822C120.914 0.670068 119.318 0.00562855 117.652 0ZM120.404 13.6001C120.42 14.0207 120.35 14.4402 120.2 14.8334C120.05 15.2266 119.822 15.5854 119.53 15.8885C119.237 16.1916 118.887 16.4327 118.5 16.5973C118.112 16.762 117.696 16.8469 117.275 16.8469C116.854 16.8469 116.437 16.762 116.05 16.5973C115.663 16.4327 115.312 16.1916 115.02 15.8885C114.728 15.5854 114.5 15.2266 114.35 14.8334C114.2 14.4402 114.13 14.0207 114.146 13.6001V6.31797C114.176 5.50807 114.518 4.74131 115.102 4.17891C115.686 3.6165 116.464 3.30227 117.275 3.30227C118.085 3.30227 118.864 3.6165 119.448 4.17891C120.031 4.74131 120.374 5.50807 120.404 6.31797V13.6001Z" fill="black"/>
<path d="M84.8128 26.6498H84.271C82.6089 26.6554 81.0164 27.3185 79.8415 28.4943C78.6665 29.67 78.0045 31.2629 78 32.9251V40.1773C78.0045 41.8391 78.6666 43.4316 79.8417 44.6067C81.0168 45.7817 82.6092 46.4439 84.271 46.4484H84.8128C86.4758 46.445 88.0697 45.7835 89.2464 44.6084C90.4231 43.4334 91.0868 41.8403 91.0924 40.1773V32.9251C91.0868 31.2618 90.4232 29.6683 89.2467 28.4925C88.0701 27.3168 86.4761 26.6543 84.8128 26.6498ZM87.5687 40.2371C87.5687 41.0653 87.2397 41.8596 86.654 42.4452C86.0684 43.0308 85.2741 43.3598 84.4459 43.3598C83.6177 43.3598 82.8235 43.0308 82.2378 42.4452C81.6522 41.8596 81.3232 41.0653 81.3232 40.2371V32.9848C81.3201 32.3661 81.5014 31.7605 81.8439 31.2453C82.1864 30.73 82.6747 30.3285 83.2463 30.0919C83.818 29.8552 84.4472 29.7942 85.0537 29.9167C85.6601 30.0391 86.2164 30.3394 86.6515 30.7793C86.9427 31.0679 87.1738 31.4115 87.3313 31.7901C87.4887 32.1687 87.5694 32.5748 87.5687 32.9848V40.2371Z" fill="black"/>
<path d="M191.613 26.6498H191.071C189.408 26.6543 187.814 27.3169 186.639 28.4928C185.463 29.6687 184.8 31.2622 184.796 32.9251V40.1773C184.801 41.8395 185.464 43.432 186.64 44.6069C187.816 45.7819 189.409 46.4439 191.071 46.4484H191.613C193.275 46.4439 194.868 45.7819 196.043 44.6069C197.219 43.432 197.882 41.8395 197.888 40.1773V32.9251C197.883 31.2622 197.221 29.6687 196.045 28.4928C194.869 27.3169 193.276 26.6543 191.613 26.6498ZM194.36 40.2285C194.375 40.6486 194.306 41.0675 194.156 41.4602C194.006 41.8529 193.778 42.2112 193.487 42.5139C193.195 42.8166 192.845 43.0574 192.458 43.2218C192.071 43.3862 191.655 43.471 191.235 43.471C190.815 43.471 190.399 43.3862 190.012 43.2218C189.625 43.0574 189.275 42.8166 188.984 42.5139C188.692 42.2112 188.464 41.8529 188.314 41.4602C188.164 41.0675 188.095 40.6486 188.11 40.2285V32.9763C188.107 32.3576 188.288 31.752 188.631 31.2368C188.973 30.7215 189.462 30.32 190.033 30.0833C190.605 29.8467 191.234 29.7857 191.841 29.9081C192.447 30.0306 193.003 30.3309 193.438 30.7708C193.73 31.0592 193.962 31.4026 194.12 31.7812C194.278 32.1598 194.36 32.566 194.36 32.9763V40.2285Z" fill="black"/>
<path d="M138.266 0.14505V12.188L130.869 0.14505H127.707V19.8242H131.167V7.45274L138.637 19.8242H141.683V0.14505H138.266Z" fill="black"/>
<path d="M122.524 26.6498V38.7653L115.08 26.6498H111.885V46.4527H115.362V33.9618L122.861 46.4356H125.963V26.6498H122.524Z" fill="black"/>
<path d="M74.3268 30.1607V26.6498H62.7275V46.4356H66.4091V37.9462H74.3353V34.414H66.4475V30.1479L74.3268 30.1607Z" fill="black"/>
<path d="M104.564 26.6498V39.8745C104.564 40.7468 104.218 41.5834 103.601 42.2002C102.984 42.817 102.148 43.1636 101.275 43.1636C100.403 43.1636 99.5665 42.817 98.9496 42.2002C98.3328 41.5834 97.9863 40.7468 97.9863 39.8745V26.6498H94.7271V40.3864C94.7316 41.9939 95.3721 43.5342 96.5088 44.6709C97.6455 45.8076 99.1858 46.4482 100.793 46.4527H101.885C103.493 46.4482 105.033 45.8076 106.17 44.6709C107.307 43.5342 107.947 41.9939 107.952 40.3864V26.6498H104.564Z" fill="black"/>
<path d="M136.231 26.6498H129.495L129.341 26.7821L129.256 26.9527V46.201C129.335 46.3178 129.444 46.4108 129.572 46.4697H136.231C137.888 46.4663 139.476 45.8061 140.646 44.6337C141.817 43.4613 142.475 41.8726 142.476 40.2157V32.8697C142.466 31.2187 141.804 29.6387 140.634 28.4737C139.465 27.3087 137.882 26.6532 136.231 26.6498ZM138.701 39.6526C138.699 40.4598 138.377 41.2332 137.806 41.8039C137.236 42.3747 136.462 42.6963 135.655 42.6986H132.852V30.0285H135.651C136.458 30.0308 137.231 30.3524 137.802 30.9231C138.373 31.4939 138.694 32.2673 138.697 33.0744L138.701 39.6526Z" fill="black"/>
<path d="M153.564 26.6498H151.986C150.461 26.6543 149 27.2621 147.921 28.3403C146.843 29.4186 146.235 30.8798 146.231 32.4047V46.4441H149.644V40.2456H155.74V46.4527H159.319V32.4132C159.318 30.8865 158.711 29.4225 157.633 28.3421C156.554 27.2618 155.091 26.6532 153.564 26.6498ZM155.74 37.0973L149.618 37.0504V33.1598C149.648 32.3677 149.983 31.618 150.554 31.0681C151.125 30.5183 151.886 30.211 152.679 30.211C153.471 30.211 154.233 30.5183 154.804 31.0681C155.375 31.618 155.71 32.3677 155.74 33.1598V37.0973Z" fill="black"/>
<path d="M162.006 26.6498V30.2759H166.396V46.4527H170.099V30.2759H174.28V26.6498H162.006Z" fill="black"/>
<path d="M177.398 26.6498V46.4441H180.888V26.6498H177.398Z" fill="black"/>
<path opacity="0.9" d="M42.7881 52.3867C42.1568 52.7706 41.5083 53.1375 40.8471 53.4745L28.8425 40.5485C28.742 40.441 28.6204 40.3554 28.4854 40.2968C28.3504 40.2382 28.2048 40.208 28.0576 40.208C27.9104 40.208 27.7648 40.2382 27.6298 40.2968C27.4948 40.3554 27.3732 40.441 27.2726 40.5485L25.2975 42.6346L15.059 53.4702C14.3935 53.1332 13.7408 52.7664 13.1095 52.3781L26.782 37.9078C26.9433 37.74 27.1367 37.6063 27.3507 37.5147C27.5647 37.423 27.7949 37.3754 28.0277 37.3746C28.2621 37.3742 28.4941 37.4221 28.7091 37.5153C28.9242 37.6085 29.1177 37.745 29.2777 37.9164L42.7881 52.3867Z" fill="#7F7F7F"/>
<path opacity="0.6" d="M35.6767 55.5009C34.9984 55.6886 34.3158 55.8592 33.6162 56L28.7231 50.7272C28.6221 50.6196 28.5002 50.5339 28.3648 50.4753C28.2295 50.4166 28.0835 50.3864 27.936 50.3864C27.7885 50.3864 27.6425 50.4166 27.5072 50.4753C27.3718 50.5339 27.2499 50.6196 27.1489 50.7272L25.161 52.8048L22.1747 55.9787C21.505 55.8422 20.848 55.68 20.1953 55.4966L26.6242 48.1036C26.7837 47.9208 26.9804 47.7741 27.2011 47.6733C27.4218 47.5726 27.6614 47.52 27.904 47.5192C28.1463 47.5195 28.3857 47.5714 28.6064 47.6714C28.8271 47.7714 29.0239 47.9173 29.1838 48.0993L35.6767 55.5009Z" fill="#7F7F7F"/>
<path opacity="0.9" d="M42.481 30.9542L53.2612 41.1542C52.9157 41.8155 52.5488 42.4639 52.152 43.091L37.7542 29.4867C37.585 29.3265 37.4504 29.1333 37.3587 28.9191C37.267 28.7048 37.2201 28.4741 37.221 28.241C37.2206 28.0066 37.2685 27.7747 37.3617 27.5596C37.455 27.3446 37.5915 27.151 37.7628 26.9911L52.3355 13.3398C52.7194 13.9754 53.0778 14.6196 53.4148 15.2937L40.3864 27.3878C40.2788 27.4888 40.1931 27.6107 40.1344 27.746C40.0758 27.8814 40.0456 28.0274 40.0456 28.1749C40.0456 28.3224 40.0758 28.4684 40.1344 28.6037C40.1931 28.7391 40.2788 28.861 40.3864 28.962L42.4725 30.9329L42.481 30.9542Z" fill="#96B85C"/>
<path opacity="0.6" d="M52.6469 31.0566L55.808 34.0428C55.6673 34.7083 55.5009 35.3653 55.3132 36.0137L47.9415 29.6147C47.7587 29.4552 47.612 29.2585 47.5112 29.0378C47.4105 28.8171 47.3579 28.5775 47.3571 28.3349C47.3579 28.0923 47.4105 27.8526 47.5112 27.6319C47.612 27.4112 47.7587 27.2146 47.9415 27.0551L55.4198 20.5153C55.6075 21.1936 55.7696 21.8804 55.9062 22.58L50.5651 27.503C50.4576 27.6036 50.372 27.7251 50.3134 27.8601C50.2548 27.9952 50.2246 28.1408 50.2246 28.2879C50.2246 28.4351 50.2548 28.5807 50.3134 28.7158C50.372 28.8508 50.4576 28.9723 50.5651 29.0729L52.6469 31.0566Z" fill="#96B85C"/>
<path opacity="0.9" d="M42.9161 3.82663L29.2649 18.2586C29.1036 18.4264 28.9102 18.5601 28.6962 18.6517C28.4822 18.7433 28.252 18.791 28.0192 18.7918C27.7848 18.7922 27.5529 18.7443 27.3378 18.6511C27.1228 18.5578 26.9292 18.4213 26.7692 18.25L13.1692 3.69865C13.8006 3.31044 14.449 2.9521 15.1188 2.61508L27.1958 15.6222C27.2964 15.7296 27.418 15.8153 27.553 15.8739C27.688 15.9324 27.8336 15.9627 27.9808 15.9627C28.128 15.9627 28.2736 15.9324 28.4086 15.8739C28.5436 15.8153 28.6652 15.7296 28.7657 15.6222L30.7409 13.5318L40.9495 2.73026C41.6292 3.0687 42.2847 3.43416 42.9161 3.82663Z" fill="#00B2DE"/>
<path opacity="0.6" d="M35.7151 0.627114L29.2564 8.04998C29.0968 8.23278 28.9002 8.37946 28.6795 8.48024C28.4588 8.58102 28.2192 8.63359 27.9766 8.63443C27.7346 8.63224 27.4957 8.5795 27.2753 8.47959C27.0549 8.37968 26.8579 8.2348 26.6968 8.05425L20.1783 0.627114C20.8523 0.439409 21.5391 0.273035 22.2345 0.127991L27.1575 5.43492C27.2584 5.54249 27.3803 5.62824 27.5157 5.68685C27.6511 5.74546 27.797 5.7757 27.9446 5.7757C28.0921 5.7757 28.238 5.74546 28.3734 5.68685C28.5088 5.62824 28.6307 5.54249 28.7316 5.43492L30.7025 3.34883L33.7357 0.140788C34.4054 0.298631 35.0624 0.460739 35.7151 0.627114Z" fill="#00B2DE"/>
<path opacity="0.9" d="M18.6169 27.9552C18.6178 28.1903 18.5702 28.4231 18.477 28.6389C18.3837 28.8547 18.2469 29.049 18.0751 29.2094L3.57063 42.8009C3.18669 42.1696 2.82408 41.5211 2.49133 40.8514L15.4472 28.7828C15.5548 28.6819 15.6405 28.5599 15.6992 28.4246C15.7578 28.2892 15.788 28.1432 15.788 27.9957C15.788 27.8482 15.7578 27.7023 15.6992 27.5669C15.6405 27.4315 15.5548 27.3096 15.4472 27.2086L13.3611 25.2377V25.2164L2.58519 15.0505C2.92647 14.3907 3.29334 13.7437 3.68582 13.1095L18.0836 26.7138C18.2523 26.8735 18.3867 27.066 18.4783 27.2795C18.57 27.4929 18.6172 27.7229 18.6169 27.9552Z" fill="#FF5349"/>
<path opacity="0.6" d="M8.47657 28.0235C8.47627 28.2657 8.42437 28.5052 8.32433 28.7258C8.2243 28.9465 8.07841 29.1434 7.8964 29.3033L0.499123 35.7876C0.307152 35.1093 0.140779 34.4267 0 33.7271L5.26853 28.834C5.37599 28.7334 5.46166 28.6119 5.52023 28.4769C5.5788 28.3418 5.60902 28.1962 5.60902 28.0491C5.60902 27.9019 5.5788 27.7563 5.52023 27.6212C5.46166 27.4862 5.37599 27.3647 5.26853 27.2641L3.18245 25.2889L0.0170645 22.3027C0.153577 21.633 0.315684 20.9717 0.499123 20.3233L7.89213 26.7351C8.07601 26.8956 8.22333 27.0936 8.32415 27.3159C8.42497 27.5381 8.47695 27.7794 8.47657 28.0235Z" fill="#FF5349"/>
<path d="M26.6754 31.9397C26.6735 32.0464 26.6343 32.149 26.5645 32.2298L25.1354 33.8508L25.0885 33.9148L24.9605 33.9575L22.2132 34.7766H22.1705C22.148 34.8064 22.1238 34.8349 22.098 34.8619L21.9913 34.9899L21.5391 35.5018L20.6433 36.5384L18.8473 38.6075L16.0402 41.8411L9.14636 49.4773C8.2998 48.7331 7.49782 47.9396 6.7446 47.1011L17.3755 37.3148L17.4438 37.2551L19.5128 35.4591L20.5494 34.559L21.0656 34.1324L21.377 33.8636L21.4709 33.7911L21.5263 33.757C22.3531 33.2255 23.2741 32.8577 24.2395 32.6734C24.2701 32.6679 24.3014 32.6685 24.3317 32.6752C24.3621 32.6819 24.3907 32.6945 24.4161 32.7124C24.4415 32.7303 24.4631 32.753 24.4797 32.7792C24.4962 32.8055 24.5074 32.8348 24.5126 32.8654C24.5187 32.8957 24.5187 32.9269 24.5125 32.9572C24.5063 32.9875 24.4941 33.0162 24.4766 33.0417C24.4591 33.0672 24.4366 33.0889 24.4106 33.1055C24.3845 33.1221 24.3553 33.1333 24.3249 33.1384L24.0817 33.2109C23.889 33.2638 23.7018 33.3353 23.5228 33.4242L24.487 33.2792C24.5292 33.2742 24.5685 33.2545 24.5979 33.2237L26.0952 31.7093C26.1342 31.67 26.1828 31.6415 26.2361 31.6266C26.2894 31.6116 26.3457 31.6108 26.3994 31.6241C26.4531 31.6374 26.5025 31.6645 26.5427 31.7026C26.5828 31.7407 26.6124 31.7886 26.6285 31.8416C26.6493 31.8715 26.6651 31.9047 26.6754 31.9397Z" fill="#FF5349"/>
<path d="M49.2767 46.9432C48.5281 47.7872 47.7304 48.5863 46.8878 49.3365L37.1058 38.7098L37.0461 38.6416L35.2501 36.5683L34.35 35.5359L33.9234 35.0197L33.6546 34.7083L33.5821 34.6102C33.5722 34.5922 33.5608 34.575 33.5479 34.559C33.0165 33.7323 32.6486 32.8112 32.4644 31.8458C32.4532 31.7836 32.4671 31.7195 32.5031 31.6675C32.5391 31.6155 32.5942 31.5799 32.6563 31.5685C32.6866 31.5624 32.7179 31.5624 32.7482 31.5686C32.7785 31.5747 32.8072 31.5869 32.8327 31.6045C32.8582 31.622 32.8798 31.6444 32.8965 31.6705C32.9131 31.6966 32.9243 31.7257 32.9294 31.7562C32.9294 31.8117 32.9891 31.9482 33.0019 31.9994C33.0559 32.1917 33.1273 32.3788 33.2152 32.5582L33.0702 31.5941C33.0651 31.5518 33.0455 31.5126 33.0147 31.4832L31.5003 29.9858C31.461 29.9468 31.4324 29.8983 31.4175 29.845C31.4026 29.7917 31.4017 29.7354 31.415 29.6817C31.4284 29.6279 31.4554 29.5786 31.4935 29.5384C31.5316 29.4983 31.5795 29.4687 31.6325 29.4526C31.6749 29.4461 31.7181 29.4461 31.7605 29.4526C31.8677 29.4518 31.9712 29.4914 32.0506 29.5635L33.6717 30.9883L33.7356 31.0353L33.7783 31.1675L34.5974 33.9148V33.9575C34.6273 33.9784 34.6558 34.0012 34.6827 34.0258L34.8107 34.1367L35.3226 34.5889L36.3592 35.4847L38.4283 37.2807L41.6619 40.0878L49.2767 46.9432Z" fill="#7F7F7F"/>
<path d="M49.2128 9.11648L38.5051 18.971H38.4837L38.4155 19.0307L36.3465 20.8267L35.3098 21.7268L34.7936 22.1748L34.4822 22.4435L34.3884 22.516L34.3329 22.5502C33.5062 23.0817 32.5851 23.4495 31.6197 23.6337C31.5892 23.6392 31.5578 23.6386 31.5275 23.632C31.4972 23.6253 31.4685 23.6126 31.4431 23.5948C31.4177 23.5769 31.3961 23.5542 31.3796 23.5279C31.363 23.5017 31.3519 23.4724 31.3467 23.4418C31.3354 23.3802 31.3487 23.3166 31.3838 23.2647C31.4189 23.2129 31.473 23.1769 31.5344 23.1645C31.5899 23.1645 31.7264 23.109 31.7776 23.0962C31.9703 23.0433 32.1575 22.9719 32.3364 22.8829L31.3723 23.028C31.33 23.033 31.2908 23.0526 31.2614 23.0834L29.764 24.5979C29.725 24.6372 29.6765 24.6657 29.6232 24.6806C29.5699 24.6956 29.5136 24.6964 29.4599 24.6831C29.4061 24.6697 29.3568 24.6427 29.3166 24.6046C29.2764 24.5665 29.2469 24.5186 29.2308 24.4656C29.2154 24.4247 29.2082 24.3813 29.2094 24.3376C29.2086 24.2304 29.2482 24.1269 29.3203 24.0475L30.7452 22.4265L30.7921 22.3625L30.9201 22.3198L33.6674 21.5007H33.7101L33.7826 21.4197L33.8935 21.2917L34.3457 20.7755L35.2416 19.7431L37.0376 17.6741L39.8403 14.4405L46.811 6.73178C47.6586 7.47789 48.4606 8.27422 49.2128 9.11648Z" fill="#96B85C"/>
<path d="M24.2779 26.8588C24.2366 26.8724 24.1934 26.8796 24.15 26.8802C24.0428 26.881 23.9392 26.8414 23.8599 26.7692L22.2388 25.3401L22.1705 25.2975L22.1321 25.1652L21.3216 22.4179V22.3753L21.2405 22.307L21.1125 22.1961L20.5964 21.7439L19.564 20.848L17.4822 19.052L14.2485 16.245L6.52704 9.27432C7.2715 8.42391 8.06642 7.61902 8.90748 6.86401L18.762 17.5802V17.6016L18.8217 17.6698L20.6177 19.7431L21.5178 20.7755L21.9444 21.2917L22.2132 21.6031L22.2814 21.697L22.3198 21.7524C22.8513 22.5791 23.2192 23.5002 23.4034 24.4656C23.4146 24.5278 23.4007 24.5919 23.3647 24.6439C23.3287 24.6959 23.2736 24.7315 23.2114 24.7429C23.1498 24.7542 23.0863 24.7409 23.0344 24.7057C22.9825 24.6706 22.9465 24.6166 22.9341 24.5552C22.9341 24.4997 22.8787 24.3632 22.8659 24.3078C22.812 24.1167 22.7405 23.9311 22.6526 23.7532L22.7976 24.713C22.8027 24.7565 22.8223 24.7971 22.8531 24.8282L24.3675 26.3213C24.4076 26.3578 24.4379 26.4037 24.4557 26.4549C24.4735 26.5062 24.4781 26.561 24.4692 26.6145C24.4603 26.668 24.4381 26.7183 24.4047 26.761C24.3713 26.8037 24.3277 26.8373 24.2779 26.8588Z" fill="#00B2DE"/>
</svg>
