<svg width="157" height="39" viewBox="0 0 157 39" fill="none" xmlns="http://www.w3.org/2000/svg">
<path d="M71.5163 36.8826H45.8V38.4078H71.5163V36.8826Z" fill="#96B85C"/>
<path d="M99.9172 36.8826H74.2009V38.4078H99.9172V36.8826Z" fill="#00B2DE"/>
<path d="M128.318 36.8826H102.602V38.4078H128.318V36.8826Z" fill="#7F7F7F"/>
<path d="M156.719 36.8826H131.003V38.4078H156.719V36.8826Z" fill="#FF5349"/>
<path d="M154.239 18.5889V26.864L153.991 26.4856V26.5089L153.929 26.3866C153.8 26.143 153.652 25.9085 153.486 25.6852L153.384 25.5455L153.301 25.4087L153.195 25.2515C152.998 24.8083 152.737 24.3922 152.421 24.0144L152.297 23.8573C152.254 23.8088 152.214 23.7593 152.177 23.7088L152.149 23.6681C152.108 23.6128 152.071 23.5516 152.037 23.4934L148.838 18.6005H146.532V32.1033H149.071V23.5866L154.496 32.1033H156.719V18.5976L154.239 18.5889Z" fill="white"/>
<path d="M52.1819 0.758008L52.1571 0.688154L52.0766 0.493134H49.6242L49.5065 0.854061L49.46 0.996686L45.2365 13.926H47.8158L48.7169 11.286H53.1387L54.2472 13.926H56.7956L52.1819 0.758008ZM49.4631 8.87302L50.8844 4.74275L52.4327 8.87884L49.4631 8.87302Z" fill="white"/>
<path d="M64.6731 0.475677V5.03382C64.6715 5.55724 64.4493 6.05874 64.0553 6.42859C63.6613 6.79843 63.1274 7.0065 62.5706 7.00727H62.0597C61.5028 7.0065 60.969 6.79843 60.575 6.42859C60.1809 6.05874 59.9588 5.55724 59.9572 5.03382V0.475677H57.4552V5.40057C57.4581 6.29875 57.7793 7.17042 58.3681 7.87782C58.957 8.58521 59.7797 9.088 60.7065 9.30672H60.8397V13.926H63.4407V9.39986L63.9237 9.32418C64.8628 9.1154 65.6997 8.61521 66.2992 7.90436C66.8986 7.19351 67.2257 6.3135 67.2277 5.40639V0.475677H64.6731Z" fill="white"/>
<path d="M78.8518 0.510605H69.3642V2.87699H74.8326L69.0112 13.9202H78.5267V11.5247H72.7982L78.8518 0.510605Z" fill="white"/>
<path d="M85.6734 0.399994H85.2833C84.0741 0.40307 82.9154 0.85617 82.0606 1.66019C81.2059 2.4642 80.7246 3.55369 80.7222 4.69035V9.63853C80.7246 10.7749 81.206 11.8641 82.0608 12.6677C82.9156 13.4712 84.0744 13.9237 85.2833 13.926H85.6765C86.8847 13.9229 88.0425 13.4706 88.897 12.6679C89.7516 11.8651 90.2336 10.7771 90.2377 9.64143V4.69326C90.2352 3.55583 89.7536 2.4656 88.8983 1.66103C88.043 0.856473 86.8835 0.40307 85.6734 0.399994V0.399994ZM87.6707 9.69092C87.6707 10.2587 87.4307 10.8032 87.0036 11.2047C86.5765 11.6062 85.9972 11.8317 85.3932 11.8317C84.7892 11.8317 84.2099 11.6062 83.7828 11.2047C83.3557 10.8032 83.1158 10.2587 83.1158 9.69092V4.71073C83.1375 4.15813 83.3863 3.63498 83.8098 3.25125C84.2334 2.86753 84.7988 2.65312 85.387 2.65312C85.9753 2.65312 86.5406 2.86753 86.9642 3.25125C87.3878 3.63498 87.6366 4.15813 87.6583 4.71073L87.6707 9.69092Z" fill="white"/>
<path d="M61.75 18.5889H61.3568C60.1487 18.5904 58.9904 19.0419 58.1356 19.8443C57.2807 20.6468 56.7989 21.7349 56.7957 22.8705V27.8187C56.7989 28.9526 57.2795 30.0391 58.1325 30.8408C58.9854 31.6426 60.1413 32.0944 61.3475 32.0974H61.75C62.9571 32.0951 64.1141 31.6438 64.9681 30.842C65.8222 30.0403 66.304 28.9533 66.308 27.8187V22.8705C66.304 21.7357 65.8223 20.6484 64.9683 19.8462C64.1143 19.044 62.9573 18.592 61.75 18.5889V18.5889ZM63.7442 27.8536C63.7442 28.4187 63.5054 28.9607 63.0803 29.3602C62.6552 29.7598 62.0787 29.9843 61.4775 29.9843C60.8764 29.9843 60.2999 29.7598 59.8748 29.3602C59.4497 28.9607 59.2109 28.4187 59.2109 27.8536V22.9055C59.2109 22.3404 59.4497 21.7985 59.8748 21.3989C60.2999 20.9993 60.8764 20.7748 61.4775 20.7748C62.0787 20.7748 62.6552 20.9993 63.0803 21.3989C63.5054 21.7985 63.7442 22.3404 63.7442 22.9055V27.8536Z" fill="white"/>
<path d="M139.267 18.5889H138.874C137.667 18.592 136.51 19.0441 135.657 19.8464C134.803 20.6487 134.322 21.7359 134.319 22.8705V27.8187C134.322 28.9538 134.802 30.0418 135.656 30.8448C136.509 31.6477 137.666 32.1002 138.874 32.1033H139.267C140.474 32.1002 141.63 31.6485 142.483 30.8468C143.337 30.0452 143.818 28.9586 143.822 27.8245V22.8764C143.821 21.7407 143.34 20.652 142.487 19.8484C141.633 19.0449 140.475 18.592 139.267 18.5889V18.5889ZM141.261 27.8536C141.273 28.1403 141.222 28.4261 141.113 28.694C141.005 28.9619 140.839 29.2064 140.628 29.413C140.416 29.6195 140.162 29.7837 139.881 29.8959C139.6 30.0081 139.298 30.066 138.993 30.066C138.688 30.066 138.386 30.0081 138.105 29.8959C137.825 29.7837 137.571 29.6195 137.359 29.413C137.147 29.2064 136.982 28.9619 136.873 28.694C136.764 28.4261 136.714 28.1403 136.725 27.8536V22.9055C136.747 22.3536 136.995 21.8312 137.418 21.448C137.841 21.0648 138.406 20.8507 138.993 20.8507C139.581 20.8507 140.145 21.0648 140.568 21.448C140.991 21.8312 141.24 22.3536 141.261 22.9055V27.8536Z" fill="white"/>
<path d="M100.636 0.498962V8.71584L95.2663 0.498962H92.9718V13.926H95.4831V5.47043L100.89 13.926H103.1V0.498962H100.636Z" fill="white"/>
<path d="M89.1167 18.5714V26.8378L83.7165 18.5714H81.4065V32.0829H83.9332V23.572L89.3768 32.0829H91.6001V18.5714H89.1167Z" fill="white"/>
<path d="M54.2256 20.9786V18.5889H45.8063V32.1033H48.4785V26.2993H54.2256V23.8805H48.5064V20.9699L54.2256 20.9786Z" fill="white"/>
<path d="M76.0836 18.5714V27.612C76.0836 28.2072 75.8321 28.778 75.3844 29.1989C74.9367 29.6198 74.3294 29.8562 73.6963 29.8562C73.0631 29.8562 72.4558 29.6198 72.0081 29.1989C71.5604 28.778 71.3089 28.2072 71.3089 27.612V18.5714H68.9401V27.9555C68.9417 29.0536 69.4058 30.1064 70.231 30.8836C71.0561 31.6609 72.1751 32.0994 73.3433 32.1032H74.136C75.3028 32.1002 76.4208 31.6631 77.2459 30.8876C78.0709 30.112 78.5359 29.061 78.5392 27.9642V18.5714H76.0836Z" fill="white"/>
<path d="M99.1585 18.5714H94.263L94.1515 18.6588L94.0896 18.7781V31.9111C94.1476 31.9901 94.2266 32.0533 94.3187 32.0945H99.1523C100.352 32.0914 101.502 31.6421 102.35 30.8447C103.198 30.0473 103.676 28.9667 103.679 27.8391V22.8269C103.676 21.7002 103.199 20.6205 102.352 19.8233C101.505 19.026 100.357 18.576 99.1585 18.5714V18.5714ZM100.951 27.4461C100.95 27.9968 100.716 28.5246 100.302 28.914C99.8878 29.3034 99.3264 29.5228 98.7405 29.5244H96.7061V20.8796H98.7405C99.3264 20.8812 99.8878 21.1006 100.302 21.49C100.716 21.8794 100.95 22.4071 100.951 22.9578V27.4461Z" fill="white"/>
<path d="M111.65 18.5889H110.489C109.383 18.592 108.323 19.0063 107.541 19.7415C106.759 20.4767 106.318 21.4729 106.315 22.5125V32.1033H108.792V27.8595H113.232V32.1033H115.83V22.5125C115.826 21.4721 115.384 20.4755 114.601 19.7403C113.818 19.0051 112.757 18.5912 111.65 18.5889V18.5889ZM113.229 25.7172L108.786 25.6997V23.0452C108.807 22.5048 109.05 21.9933 109.465 21.6181C109.879 21.2429 110.432 21.0333 111.007 21.0333C111.583 21.0333 112.135 21.2429 112.55 21.6181C112.964 21.9933 113.208 22.5048 113.229 23.0452V25.7172Z" fill="white"/>
<path d="M117.778 18.5831V21.0572H120.964V32.1033H123.652V21.0572H126.686V18.5831H117.778Z" fill="white"/>
<path d="M128.944 18.5831V32.1033H131.477V18.5976L128.944 18.5831Z" fill="white"/>
<path opacity="0.9" d="M31.2775 36.382C30.813 36.6478 30.3393 36.8971 29.8562 37.13L21.0808 28.2466C21.007 28.173 20.918 28.1144 20.8192 28.0744C20.7204 28.0343 20.614 28.0136 20.5064 28.0136C20.3988 28.0136 20.2924 28.0343 20.1936 28.0744C20.0948 28.1144 20.0058 28.173 19.932 28.2466L18.489 29.6815H18.4736L10.9863 37.13C10.5001 36.8971 10.0233 36.6468 9.56189 36.3791L19.5573 26.4361C19.6744 26.3206 19.8151 26.2285 19.971 26.1655C20.127 26.1025 20.2949 26.0698 20.4646 26.0694V26.0694C20.6386 26.0667 20.8112 26.0984 20.9713 26.1626C21.1314 26.2268 21.2752 26.322 21.3935 26.4419L31.2775 36.382Z" fill="#7F7F7F"/>
<path opacity="0.6" d="M26.0755 38.5213C25.5842 38.6533 25.0826 38.7678 24.5706 38.8648L20.9942 35.241C20.9203 35.167 20.8311 35.108 20.732 35.0676C20.633 35.0273 20.5262 35.0065 20.4182 35.0065C20.3103 35.0065 20.2035 35.0273 20.1044 35.0676C20.0053 35.108 19.9161 35.167 19.8423 35.241L18.3993 36.6701L16.2039 38.8502C15.7116 38.7571 15.2316 38.6465 14.7548 38.5184L19.4552 33.4393C19.5707 33.314 19.7133 33.2134 19.8735 33.1441C20.0337 33.0748 20.2078 33.0385 20.3842 33.0376C20.5601 33.0391 20.7337 33.0754 20.8938 33.1441C21.0538 33.2128 21.1967 33.3123 21.3131 33.4363L26.0755 38.5213Z" fill="#7F7F7F"/>
<path opacity="0.9" d="M31.0516 21.6568L38.9321 28.657C38.6782 29.1111 38.4088 29.5554 38.1239 29.9901L27.5959 20.638C27.473 20.528 27.375 20.3957 27.308 20.2491C27.2409 20.1026 27.2062 19.9448 27.2057 19.7852V19.7852C27.2028 19.6217 27.2366 19.4594 27.3049 19.3089C27.3732 19.1585 27.4745 19.0232 27.6021 18.912L38.254 9.54248C38.5358 9.97908 38.799 10.4157 39.0436 10.8843L29.5219 19.1973C29.4432 19.2664 29.3805 19.35 29.3377 19.4429C29.2948 19.5358 29.2727 19.6359 29.2727 19.7372C29.2727 19.8384 29.2948 19.9386 29.3377 20.0315C29.3805 20.1243 29.4432 20.208 29.5219 20.2771L31.0485 21.6335L31.0516 21.6568Z" fill="#96B85C"/>
<path opacity="0.6" d="M38.4831 21.7237L40.793 23.7787C40.6909 24.2357 40.5701 24.6897 40.4307 25.1351L35.046 20.7312C34.9127 20.6226 34.8057 20.4885 34.732 20.338C34.6583 20.1874 34.6196 20.0237 34.6187 19.858C34.6202 19.6926 34.6588 19.5294 34.7319 19.3789C34.805 19.2285 34.911 19.0942 35.0429 18.9848L40.5082 14.4645C40.6465 14.9302 40.7652 15.4027 40.8643 15.882L36.9782 19.2962C36.8994 19.3656 36.8367 19.4495 36.7938 19.5426C36.7509 19.6357 36.7287 19.7361 36.7287 19.8376C36.7287 19.9391 36.7509 20.0395 36.7938 20.1326C36.8367 20.2257 36.8994 20.3096 36.9782 20.379L38.4831 21.7237Z" fill="#96B85C"/>
<path opacity="0.9" d="M31.3705 3.01379L21.4029 12.9305C21.2847 13.0455 21.1434 13.1371 20.987 13.2001C20.8307 13.2631 20.6626 13.2961 20.4926 13.2973V13.2973C20.3187 13.2989 20.1464 13.2667 19.9865 13.2025C19.8266 13.1384 19.6826 13.0438 19.5636 12.9247L9.6239 2.92647C10.0853 2.6616 10.5528 2.41128 11.0483 2.18134L19.8763 11.1172C19.9499 11.1911 20.0389 11.25 20.1377 11.2903C20.2365 11.3306 20.343 11.3514 20.4507 11.3514C20.5585 11.3514 20.665 11.3306 20.7638 11.2903C20.8626 11.25 20.9516 11.1911 21.0251 11.1172L22.4681 9.68511L29.9337 2.25993C30.4312 2.49084 30.9101 2.74213 31.3705 3.01379Z" fill="#00B2DE"/>
<path opacity="0.6" d="M26.1033 0.824945L21.3843 5.92739C21.2688 6.05265 21.1262 6.15327 20.966 6.22254C20.8058 6.29181 20.6317 6.32813 20.4554 6.32906C20.2795 6.32721 20.106 6.29077 19.946 6.22209C19.786 6.15342 19.6431 6.05402 19.5264 5.9303L14.7485 0.822036C15.2419 0.692025 15.7425 0.57754 16.2503 0.478577L19.8515 4.12567C19.9254 4.19923 20.0144 4.25783 20.1131 4.29789C20.2119 4.33795 20.3184 4.35861 20.4259 4.35861C20.5335 4.35861 20.6399 4.33795 20.7387 4.29789C20.8375 4.25783 20.9265 4.19923 21.0003 4.12567L22.4433 2.6907L24.6604 0.487308C25.1496 0.589183 25.6296 0.699786 26.1033 0.824945Z" fill="#00B2DE"/>
<path opacity="0.9" d="M13.6059 19.5873C13.6088 19.7508 13.575 19.9131 13.5067 20.0636C13.4384 20.214 13.3372 20.3493 13.2096 20.4605L2.60723 29.7951C2.32545 29.3614 2.06225 28.9219 1.81763 28.4562L11.2774 20.1694C11.3556 20.1 11.418 20.0163 11.4606 19.9235C11.5032 19.8306 11.5252 19.7306 11.5252 19.6295C11.5252 19.5284 11.5032 19.4283 11.4606 19.3355C11.418 19.2426 11.3556 19.1589 11.2774 19.0896L9.75081 17.7332L1.87646 10.7475C2.12624 10.2915 2.3946 9.84616 2.68155 9.4115L13.2096 18.7606C13.4525 18.9763 13.595 19.2734 13.6059 19.5873V19.5873Z" fill="#FF5349"/>
<path opacity="0.6" d="M6.19296 19.6397C6.19316 19.8074 6.15545 19.9733 6.08231 20.1264C6.00918 20.2794 5.9023 20.4161 5.76874 20.5274L0.362288 24.975C0.222946 24.5093 0.102184 24.0406 0 23.5604L3.84583 20.1985C3.92449 20.1294 3.9872 20.0457 4.03007 19.9529C4.07294 19.86 4.09506 19.7598 4.09506 19.6586C4.09506 19.5573 4.07294 19.4572 4.03007 19.3643C3.9872 19.2714 3.92449 19.1878 3.84583 19.1187L2.31926 17.7623L0.00619192 15.7044C0.105279 15.2445 0.222947 14.7905 0.359192 14.3422L5.76565 18.7548C5.90047 18.8647 6.00845 19.0006 6.08221 19.1533C6.15596 19.3061 6.19374 19.4719 6.19296 19.6397Z" fill="#FF5349"/>
<path d="M19.4955 22.3321C19.4951 22.4059 19.4665 22.4772 19.415 22.5329L18.3715 23.6448L18.3374 23.6884L18.2445 23.7175L16.2318 24.2822H16.2008L16.1482 24.3404L16.0677 24.4278L15.7395 24.78L15.083 25.4931L13.7701 26.9135L11.7202 29.1343L6.67917 34.3736C6.0598 33.8627 5.47352 33.3174 4.92346 32.7407L12.6956 26.0228L12.7452 25.9792L14.2594 24.745L15.0149 24.128L15.3927 23.8194L15.6218 23.6361L15.6899 23.5866L15.7302 23.5633C16.3332 23.1966 17.0063 22.9436 17.7119 22.8181C17.7575 22.8104 17.8044 22.8199 17.8426 22.8444C17.8808 22.8688 17.9073 22.9065 17.9163 22.9491C17.9244 22.9916 17.9143 23.0353 17.8882 23.0708C17.8621 23.1062 17.8221 23.1305 17.777 23.1383L17.5974 23.1878C17.4573 23.2234 17.3214 23.2722 17.1917 23.3333L17.8946 23.2344C17.9262 23.2309 17.9556 23.2176 17.9782 23.1965L19.0713 22.1545C19.0999 22.1278 19.1354 22.1084 19.1743 22.0983C19.2131 22.0882 19.2541 22.0876 19.2933 22.0967C19.3325 22.1058 19.3685 22.1241 19.398 22.15C19.4274 22.176 19.4493 22.2086 19.4614 22.2447C19.4774 22.2721 19.4889 22.3015 19.4955 22.3321V22.3321Z" fill="#FF5349"/>
<path d="M36.0183 32.6417C35.4726 33.2221 34.8905 33.7713 34.275 34.2863L27.1283 26.9833V26.9688L27.085 26.9222L25.7689 25.4989L25.1125 24.7887L24.7843 24.4336L24.5892 24.2182L24.5396 24.1542L24.5118 24.1163C24.1223 23.5492 23.8532 22.9166 23.7191 22.2535C23.7109 22.2107 23.7209 22.1666 23.747 22.1306C23.773 22.0947 23.813 22.0698 23.8584 22.0614C23.9036 22.0537 23.9501 22.0632 23.9878 22.0878C24.0256 22.1123 24.0514 22.1499 24.0597 22.1924C24.0597 22.2302 24.103 22.3233 24.1123 22.3583C24.1511 22.4906 24.2029 22.6192 24.2672 22.7425L24.1619 22.0817C24.1582 22.0521 24.144 22.0244 24.1216 22.0031L23.0162 20.9757C22.9869 20.9491 22.9655 20.9158 22.9542 20.8791C22.9429 20.8423 22.9421 20.8035 22.9518 20.7663C22.9615 20.7292 22.9814 20.6951 23.0096 20.6675C23.0377 20.6398 23.0731 20.6197 23.1122 20.6089C23.1422 20.5997 23.1735 20.5947 23.2051 20.5944C23.2836 20.5948 23.3594 20.6216 23.4187 20.6701L24.6016 21.651L24.6511 21.6801L24.679 21.7703L25.2797 23.6593V23.6884C25.3013 23.7038 25.322 23.7203 25.3416 23.7379L25.4345 23.8136L25.8123 24.1221L26.5678 24.7392L28.0789 25.9733L30.4446 27.9002L36.0183 32.6417Z" fill="#7F7F7F"/>
<path d="M35.9719 6.64924L28.144 13.4166L28.0944 13.4603L26.5803 14.6944L25.8216 15.3115L25.4469 15.62L25.2116 15.8034L25.1404 15.8529L25.1032 15.8761C24.499 16.2425 23.8249 16.4956 23.1184 16.6213C23.0732 16.6289 23.0267 16.6194 22.989 16.5949C22.9512 16.5703 22.9254 16.5327 22.9171 16.4903C22.9126 16.4694 22.9126 16.448 22.9171 16.4271C22.9215 16.4062 22.9303 16.3864 22.943 16.3688C22.9557 16.3512 22.972 16.3361 22.9909 16.3245C23.0099 16.3129 23.0311 16.3049 23.0534 16.3011C23.0967 16.3011 23.1958 16.2603 23.233 16.2516C23.374 16.216 23.5109 16.1672 23.6417 16.1061L22.9357 16.205C22.905 16.2085 22.8765 16.2219 22.8552 16.2429L21.7621 17.2849C21.7335 17.3116 21.698 17.331 21.6592 17.3411C21.6203 17.3512 21.5793 17.3518 21.5401 17.3427C21.5009 17.3337 21.4649 17.3153 21.4355 17.2894C21.406 17.2634 21.3842 17.2308 21.372 17.1947C21.3595 17.166 21.3532 17.1354 21.3534 17.1044C21.3549 17.0303 21.3846 16.9591 21.437 16.9036L22.4774 15.7917L22.5115 15.7481L22.6075 15.719L24.614 15.1543H24.645L24.6976 15.099L24.7781 15.0087L25.1094 14.6566L25.7628 13.9434L27.0788 12.523L29.1287 10.3022L34.2255 5.0047C34.8419 5.51973 35.4251 6.06889 35.9719 6.64924V6.64924Z" fill="#96B85C"/>
<path d="M17.7459 18.8392C17.7159 18.8485 17.6846 18.8534 17.653 18.8538C17.5742 18.8551 17.4978 18.828 17.4394 18.7781L16.2534 17.7972L16.207 17.7681L16.176 17.6779L15.5753 15.8034V15.7743L15.5165 15.7248L15.4205 15.6491L15.0458 15.3406L14.2872 14.7235L12.7668 13.4748L10.4042 11.5479L4.77478 6.75694C5.32089 6.17423 5.90191 5.62127 6.515 5.10075L13.7205 12.4648V12.4794L13.7639 12.5259L15.0768 13.9493L15.7332 14.6595L16.0615 15.0146L16.2565 15.23L16.3092 15.294L16.3339 15.3318C16.7234 15.899 16.9925 16.5315 17.1266 17.1947C17.1348 17.2375 17.1248 17.2816 17.0988 17.3175C17.0727 17.3534 17.0327 17.3783 16.9873 17.3868C16.9421 17.3944 16.8956 17.3849 16.8579 17.3604C16.8202 17.3358 16.7943 17.2982 16.786 17.2558C16.786 17.218 16.7427 17.1248 16.7334 17.087C16.6955 16.9553 16.6436 16.8276 16.5786 16.7057L16.6838 17.3664C16.6876 17.3961 16.7017 17.4238 16.7241 17.445L17.8326 18.4725C17.8612 18.4988 17.8822 18.5315 17.8936 18.5676C17.905 18.6036 17.9064 18.6418 17.8977 18.6785C17.889 18.7152 17.8705 18.7492 17.844 18.7773C17.8174 18.8055 17.7837 18.8268 17.7459 18.8392V18.8392Z" fill="#00B2DE"/>
</svg>
